<svg xmlns="http://www.w3.org/2000/svg" xmlns:xlink="http://www.w3.org/1999/xlink" width="428" height="451" viewBox="0 0 428 451">
  <defs>
    <clipPath id="clip-avatar">
      <rect width="428" height="451"/>
    </clipPath>
  </defs>
  <g id="avatar" clip-path="url(#clip-avatar)">
    <rect width="428" height="451" fill="#fff"/>
    <g id="Group_12" data-name="Group 12" transform="translate(0 0)">
      <g id="Group_11" data-name="Group 11" transform="translate(0 0)">
        <path id="Path_1" data-name="Path 1" d="M385.566,371.238a211.449,211.449,0,0,0,50.063-136.922C435.629,117.059,340.572,22,223.315,22S11,117.059,11,234.316A211.454,211.454,0,0,0,61.5,371.748Z" transform="translate(-11.001 -2.935)" fill="#ff4155"/>
        <path id="Path_2" data-name="Path 2" d="M316.96,379.922c-27.637,46.769-72.2,47.179-72.2,47.179s-44.523-.41-72.161-47.125c-.634.768-1.286,1.514-1.982,2.21q-5.562,1.283-10.975,2.809a10.474,10.474,0,0,1,4.873,4.311c16.995,29.025,46.625,63.7,80.341,63.7s63.346-34.67,80.341-63.7a10.485,10.485,0,0,1,4.83-4.293q-5.454-1.526-11.041-2.827C318.275,381.475,317.607,380.71,316.96,379.922Z" transform="translate(-30.831 -50.684)" fill="#fcad6d"/>
        <path id="Path_3" data-name="Path 3" d="M219.631,421.3c-14.686-5.864-33.026-17.641-47.032-41.313-.633.768-1.286,1.515-1.982,2.21q-5.562,1.284-10.975,2.81a10.472,10.472,0,0,1,4.873,4.311c9.847,16.818,23.938,35.531,40.608,48.3a19.573,19.573,0,0,0,2.187-.963C213.771,433.185,217.646,426.085,219.631,421.3Z" transform="translate(-30.831 -50.693)" fill="#fd995b"/>
        <path id="Path_4" data-name="Path 4" d="M351.426,88.707c0-23.685-13.645-33.5-22.671-37.4a18.529,18.529,0,0,1-9.908-10.029c-3.949-9.786-15.116-26.744-46.341-37.107C226.6-11.065,185.791,19.9,163.857,25.8c-14.424,3.878-25.76-4.677-31.832-10.99a5.281,5.281,0,0,0-8.584,1.495c-4.741,10.921-11.649,32.4-5.329,54.734a1.8,1.8,0,0,1-2.387,2.113c-1.834-.628-3.481-1.214-4.8-1.694a1.713,1.713,0,0,0-2.277,2.065c5.342,16.51,10.52,25.928,15.166,31.008a14.417,14.417,0,0,1,3.786,7.983,90.567,90.567,0,0,0,3.761,17.7,100.686,100.686,0,0,1,5.1,26.11c.006.1.01.165.014.177H341.787c.01-.042.021-.191.034-.427a97.388,97.388,0,0,1,5-25.621c6.236-18.445,4.606-41.747,4.606-41.747Z" transform="translate(-24.016 0)" fill="#41416b"/>
        <path id="Path_5" data-name="Path 5" d="M192.3,100.042s19.075-22.848,5.785-48.632S216.926,5.266,216.926,5.266c-22.09,6.467-40.621,17.886-53.069,21.233-14.424,3.879-25.76-4.677-31.832-10.99A5.281,5.281,0,0,0,123.441,17c-4.741,10.921-11.649,32.4-5.329,54.734a1.8,1.8,0,0,1-2.387,2.113c-1.834-.628-3.481-1.214-4.8-1.694a1.713,1.713,0,0,0-2.277,2.065c5.342,16.51,10.52,25.929,15.166,31.008a14.416,14.416,0,0,1,3.786,7.983,90.581,90.581,0,0,0,3.761,17.7,100.687,100.687,0,0,1,5.1,26.11c.006.1.01.165.014.177h43.3Z" transform="translate(-24.016 -0.703)" fill="#35355e"/>
        <path id="Path_6" data-name="Path 6" d="M381.8,179.171c-4.6-4.219-13.776-2.081-17.741.5a55.755,55.755,0,0,1,.168,16.41l-4.68,34.082c0,2.747-.087,5.443-.246,8.091,11.411,3.442,17.079-6.8,18.034-13.833a52.315,52.315,0,0,1,2.015-8.92c3.036-9.48,13.987-25.763,2.451-36.335Z" transform="translate(-57.466 -23.584)" fill="#fcad6d"/>
        <g id="Group_6" data-name="Group 6" transform="translate(301.832 182.58)">
          <path id="Path_7" data-name="Path 7" d="M373.132,215.942a12.706,12.706,0,0,1-10.292-5.255l-3.3,24c0,2.747-.087,5.443-.246,8.091,11.411,3.442,17.079-6.8,18.034-13.832a52.2,52.2,0,0,1,2.016-8.92c.785-2.452,2.1-5.363,3.419-8.51A12.7,12.7,0,0,1,373.132,215.942Z" transform="translate(-359.298 -210.687)" fill="#fd995b"/>
        </g>
        <path id="Path_8" data-name="Path 8" d="M150.05,180.872h0Z" transform="translate(-29.551 -24.13)" fill="#41416b"/>
        <path id="Path_9" data-name="Path 9" d="M129.679,179.171c4.6-4.219,13.776-2.081,17.742.5a55.679,55.679,0,0,0-.167,16.41l4.679,34.082c0,2.747.087,5.443.246,8.091-11.41,3.442-17.079-6.8-18.034-13.833a52.352,52.352,0,0,0-2.015-8.92C129.093,206.026,118.143,189.743,129.679,179.171Z" transform="translate(-26.144 -23.584)" fill="#fcad6d"/>
        <path id="Path_10" data-name="Path 10" d="M330.115,150.76a24.493,24.493,0,0,1-3.7-14.948c.23-3.175.382-6.993.3-11.118-.033-.542-.05-1.131-.05-1.772-.043-1.2-.11-2.426-.2-3.663-1.111-11.045-7.047-19-11.774-23.675a10.052,10.052,0,0,0-11.913-1.593c-58.441,32.225-106.874,20.32-132.951,8.583a5.545,5.545,0,0,0-7.635,3.785c-2.6,10.543-2.469,21.944-1.907,29.583a24.259,24.259,0,0,1-3.711,14.82,45.263,45.263,0,0,0-3.954,7.9,54.49,54.49,0,0,0-3.084,27.189l4.68,34.09c0,.061,0,.12,0,.182,4.812,14.035,14.549,34.156,31.947,39.867l.22.063a32.976,32.976,0,0,1,22,21.8c4.848,14.877,18.606,18.832,34.959,18.832s30.11-3.958,34.958-18.827a32.985,32.985,0,0,1,22-21.805l.22-.063c17.4-5.712,27.139-25.837,31.952-39.872,0-.06,0-.118,0-.177l4.679-34.082a54.521,54.521,0,0,0-2.984-26.94A45.266,45.266,0,0,0,330.115,150.76Z" transform="translate(-29.412 -12.37)" fill="#f9ba8f"/>
        <g id="Group_7" data-name="Group 7" transform="translate(102.564 182.58)">
          <path id="Path_11" data-name="Path 11" d="M138.991,215.942a12.707,12.707,0,0,0,10.292-5.255l3.3,24c0,2.747.087,5.443.245,8.091-11.411,3.442-17.079-6.8-18.034-13.832a52.3,52.3,0,0,0-2.016-8.92c-.785-2.452-2.1-5.363-3.42-8.51A12.7,12.7,0,0,0,138.991,215.942Z" transform="translate(-129.354 -210.687)" fill="#fd995b"/>
        </g>
        <path id="Path_12" data-name="Path 12" d="M188.523,187.291c-1.486-13.651,1.176-26.371,5.58-35.087a29.327,29.327,0,0,0,2.942-14.82,134.121,134.121,0,0,1,.649-24.232,139.25,139.25,0,0,1-27.821-9.116,5.556,5.556,0,0,0-7.68,3.763c-2.6,10.544-2.469,21.946-1.908,29.585a24.26,24.26,0,0,1-3.711,14.82c-5.63,8.833-8.894,21.574-7.039,35.087l4.681,34.09c0,.061,0,.121,0,.182,4.812,14.035,14.549,34.155,31.947,39.867l.22.063a31.584,31.584,0,0,1,13.08,7.554,155.085,155.085,0,0,1-7.232-47.666Z" transform="translate(-29.413 -13.814)" fill="#fcad6d"/>
        <path id="Path_13" data-name="Path 13" d="M292.445,198.264a12.516,12.516,0,0,1,.836-4.518,26.212,26.212,0,0,0-4.967,3.161,90.67,90.67,0,0,1-10.323,6.7.567.567,0,0,0,.283,1.058h.262a23.254,23.254,0,0,1,7.275,1.159,45.823,45.823,0,0,0,11.566,2.227A11.815,11.815,0,0,1,292.445,198.264Z" transform="translate(-46.581 -25.847)" fill="#fff5ee"/>
        <path id="Path_14" data-name="Path 14" d="M330.443,200.542a35.9,35.9,0,0,0-13.861-8.527,12.38,12.38,0,0,1,1.535,6.017,11.988,11.988,0,0,1-3.844,8.932,38.687,38.687,0,0,0,8.012-2.528,31.534,31.534,0,0,1,7.741-2.512A.806.806,0,0,0,330.443,200.542Z" transform="translate(-51.46 -25.616)" fill="#fff5ee"/>
        <path id="Path_15" data-name="Path 15" d="M294.783,193.673a11.045,11.045,0,0,0,4.559,13.964,45.742,45.742,0,0,0,12.424-.891,11.041,11.041,0,0,0,2.28-14.846A24.692,24.692,0,0,0,294.783,193.673Z" transform="translate(-48.736 -25.442)" fill="#41416b"/>
        <path id="Path_16" data-name="Path 16" d="M310.053,199.381a4.233,4.233,0,1,1-4.233-4.233A4.233,4.233,0,0,1,310.053,199.381Z" transform="translate(-49.767 -26.034)" fill="#35355e"/>
        <path id="Path_17" data-name="Path 17" d="M334.682,181.192c-.633-4.159-3.153-13.825-12.986-16.06-9.93-2.257-30.867,2-39.344,3.914a6.249,6.249,0,0,0-4.654,4.463l-1.746,6.441a.729.729,0,0,0,.9.893c6.427-1.8,36.02-9.806,45.034-6.914,6.875,2.2,10.4,5.642,11.966,7.624A.468.468,0,0,0,334.682,181.192Z" transform="translate(-46.344 -21.944)" fill="#41416b"/>
        <path id="Path_18" data-name="Path 18" d="M222.864,198.264a12.512,12.512,0,0,0-.836-4.518A26.265,26.265,0,0,1,227,196.907a90.738,90.738,0,0,0,10.322,6.7.567.567,0,0,1-.282,1.058h-.263a23.253,23.253,0,0,0-7.275,1.159,45.823,45.823,0,0,1-11.566,2.227A11.815,11.815,0,0,0,222.864,198.264Z" transform="translate(-38.607 -25.847)" fill="#fff5ee"/>
        <path id="Path_19" data-name="Path 19" d="M185.366,200.542a35.9,35.9,0,0,1,13.861-8.527,12.379,12.379,0,0,0-1.535,6.017,11.987,11.987,0,0,0,3.844,8.932,38.688,38.688,0,0,1-8.013-2.528,31.546,31.546,0,0,0-7.741-2.512A.806.806,0,0,1,185.366,200.542Z" transform="translate(-34.228 -25.616)" fill="#fff5ee"/>
        <path id="Path_20" data-name="Path 20" d="M220.154,193.673a11.045,11.045,0,0,1-4.559,13.964,45.738,45.738,0,0,1-12.424-.891,11.041,11.041,0,0,1-2.28-14.846A24.692,24.692,0,0,1,220.154,193.673Z" transform="translate(-36.08 -25.442)" fill="#41416b"/>
        <path id="Path_21" data-name="Path 21" d="M206.98,199.381a4.233,4.233,0,1,0,4.233-4.233A4.233,4.233,0,0,0,206.98,199.381Z" transform="translate(-37.146 -26.034)" fill="#35355e"/>
        <path id="Path_22" data-name="Path 22" d="M174.608,181.192c.633-4.159,3.153-13.825,12.986-16.06,9.929-2.257,30.867,2,39.344,3.914a6.249,6.249,0,0,1,4.653,4.463l1.746,6.441a.73.73,0,0,1-.9.893c-6.427-1.8-36.019-9.806-45.034-6.914-6.875,2.2-10.405,5.642-11.966,7.624A.468.468,0,0,1,174.608,181.192Z" transform="translate(-32.827 -21.944)" fill="#41416b"/>
        <path id="Path_23" data-name="Path 23" d="M280.006,296.269,270.553,300a5.086,5.086,0,0,1-3.331.138l-10.894-3.285-10.893,3.285A5.088,5.088,0,0,1,242.1,300l-9.453-3.727a5.083,5.083,0,0,1,3.729-9.457l7.81,3.08,10.624-3.2a5.046,5.046,0,0,1,3.03,0l10.622,3.2,7.81-3.08a5.083,5.083,0,0,1,3.73,9.457Z" transform="translate(-40.141 -38.215)" fill="#fcad6d"/>
        <g id="Group_8" data-name="Group 8" transform="translate(229.582 143.957)">
          <path id="Path_24" data-name="Path 24" d="M298.863,166.118c-6.586,1-12.765,2.3-16.511,3.145a6.249,6.249,0,0,0-4.654,4.463l-1.746,6.44a.729.729,0,0,0,.9.893c3.564-1,14.248-3.9,24.6-5.8A5.324,5.324,0,0,1,298.863,166.118Z" transform="translate(-275.926 -166.118)" fill="#35355e"/>
        </g>
        <g id="Group_9" data-name="Group 9" transform="translate(141.777 142.546)">
          <path id="Path_25" data-name="Path 25" d="M204.41,165.105c-6.392-.713-12.6-.931-16.815.028-9.834,2.235-12.353,11.9-12.986,16.06a.468.468,0,0,0,.829.361c1.561-1.983,5.091-5.42,11.966-7.624,3.431-1.1,9.844-.621,16.824.491A5.322,5.322,0,0,1,204.41,165.105Z" transform="translate(-174.603 -164.49)" fill="#35355e"/>
        </g>
        <path id="Path_26" data-name="Path 26" d="M334.519,223.253S326.337,267.4,299.4,276.238l-.215.061a32.275,32.275,0,0,0-21.527,21.337c-4.743,14.551-18.2,18.423-34.208,18.423s-29.465-3.87-34.21-18.428A32.268,32.268,0,0,0,187.718,276.3l-.215-.061c-26.935-8.842-35.113-52.985-35.113-52.985-20.7,184.6,91.062,185.615,91.062,185.615S355.224,407.849,334.519,223.253Z" transform="translate(-29.522 -29.784)" fill="#41416b"/>
        <path id="Path_27" data-name="Path 27" d="M262.447,311.872h-6.525a5.083,5.083,0,0,0,0,10.165h6.525a5.083,5.083,0,0,0,0-10.165Z" transform="translate(-42.997 -41.606)" fill="#fcad6d"/>
        <path id="Path_28" data-name="Path 28" d="M192.737,282.327l.215.061a31.388,31.388,0,0,1,16.954,12.2l4.751-3.156a15.8,15.8,0,0,1,9.221-2.693,67.434,67.434,0,0,0,25.286-4.472,4.93,4.93,0,0,1,3.562,0,67.434,67.434,0,0,0,25.286,4.472,15.8,15.8,0,0,1,9.221,2.693L289,292.606a31.184,31.184,0,0,1,15.427-10.217l.215-.061a32.169,32.169,0,0,0,7.115-3.369c-7.737-13.236-25.466-31.833-60.809-19.015-37.072-13.446-54.767,7.674-61.875,20.915A31.422,31.422,0,0,0,192.737,282.327Z" transform="translate(-34.757 -34.104)" fill="#41416b"/>
        <path id="Path_29" data-name="Path 29" d="M239.834,255.6l3.875-.816a18.953,18.953,0,0,0,26.353,0l3.875.816a5.162,5.162,0,0,0,2.127-10.1l-6.953-1.464a4.923,4.923,0,0,0-5.542,2.481c-2.812,4.349-10.551,4.355-13.367,0a4.926,4.926,0,0,0-5.542-2.481l-6.953,1.464a5.162,5.162,0,0,0,2.127,10.1Z" transform="translate(-40.698 -32.54)" fill="#fcad6d"/>
        <path id="Path_30" data-name="Path 30" d="M230.976,495.025a211.856,211.856,0,0,0,162.984-76.261c-5.27-1.238-9.322-3.951-16.554-8.029-17.828-10.053-35.9-19.4-55.149-25.508a10.179,10.179,0,0,0-11.839,4.559c-16.454,28.1-45.143,61.669-77.785,61.669s-61.331-33.567-77.785-61.669a10.178,10.178,0,0,0-11.839-4.559c-19.253,6.1-37.322,15.456-55.148,25.508-8.49,4.787-12.6,7.7-19.435,8.542A211.843,211.843,0,0,0,230.976,495.025Z" transform="translate(-18.662 -51.329)" fill="#fff5ee"/>
        <path id="Path_31" data-name="Path 31" d="M154.848,389.786a10.18,10.18,0,0,0-11.839-4.559c-19.253,6.1-37.322,15.455-55.148,25.508-8.49,4.787-12.6,7.7-19.435,8.542a213.279,213.279,0,0,0,61.618,50.253c19.5-22.216,56.932-27.867,65.1-32.244h0C178.577,424.916,164.574,406.4,154.848,389.786Z" transform="translate(-18.662 -51.329)" fill="#fce6d6"/>
        <g id="Group_10" data-name="Group 10" transform="translate(120.309 193.469)">
          <path id="Path_32" data-name="Path 32" d="M221.819,256.214c-17.889,2.687-27.843,15.579-32.749,24.72a31.346,31.346,0,0,0,3.667,1.469l.215.061a31.392,31.392,0,0,1,16.955,12.2l4.751-3.156a15.8,15.8,0,0,1,9.221-2.693,57.448,57.448,0,0,0,6.824-.2C210.7,276.589,221.815,256.221,221.819,256.214Z" transform="translate(-155.066 -227.65)" fill="#35355e"/>
          <path id="Path_33" data-name="Path 33" d="M239.4,357.842c-17.7-22.113,6.308-41.781,6.308-41.781l-.013-.029c-.743.018-1.49.029-2.245.029-16,0-29.466-3.87-34.21-18.428A32.271,32.271,0,0,0,187.717,276.3l-.215-.061c-26.935-8.842-35.113-52.985-35.113-52.985-20.7,184.6,91.062,185.615,91.062,185.615S263.408,387.826,239.4,357.842Z" transform="translate(-149.831 -223.253)" fill="#35355e"/>
        </g>
      </g>
    </g>
  </g>
</svg>
