<svg xmlns="http://www.w3.org/2000/svg" xmlns:xlink="http://www.w3.org/1999/xlink" width="485" height="204" viewBox="0 0 485 204">
  <defs>
    <linearGradient id="linear-gradient" y1="0.455" x2="1" y2="0.455" gradientUnits="objectBoundingBox">
      <stop offset="0" stop-color="#0f1b43"/>
      <stop offset="1" stop-color="#4caa43"/>
    </linearGradient>
    <clipPath id="clip-churpy">
      <rect width="485" height="204"/>
    </clipPath>
  </defs>
  <g id="churpy" clip-path="url(#clip-churpy)">
    <rect width="485" height="204" fill="#fff"/>
    <path id="Path_33" data-name="Path 33" d="M338.947,140.527a37.034,37.034,0,0,1-16.034-14.651,42.967,42.967,0,0,1-5.6-22.071q0-17.449,6.6-30.936c4.4-8.992,10.312-15.971,17.858-20.939A44.337,44.337,0,0,1,366.8,44.447q12.827,0,19.43,6.6c4.4,4.4,6.665,10.186,6.665,17.355,0,4.841-.88,8.677-2.578,11.633a7.992,7.992,0,0,1-7.294,4.4,7.838,7.838,0,0,1-5.219-1.572,5.449,5.449,0,0,1-1.886-4.527,30.7,30.7,0,0,1,.5-3.9,28.271,28.271,0,0,0,.692-5.722c0-7.169-3.836-10.815-11.507-10.815A25.425,25.425,0,0,0,350.642,63c-4.716,3.4-8.552,8.426-11.507,15.029s-4.4,14.462-4.4,23.517c0,9.494,2.641,16.852,7.923,22.008s13.142,7.8,23.517,7.8a63.793,63.793,0,0,0,15.594-1.949,120.273,120.273,0,0,0,17.48-5.973,7.819,7.819,0,0,1,2.956-.692,3.2,3.2,0,0,1,2.829,1.447,6.544,6.544,0,0,1,.944,3.647c0,4.841-2.578,8.363-7.86,10.689a80.484,80.484,0,0,1-17.481,5.408,93.959,93.959,0,0,1-17.229,1.7C354.038,145.683,345.863,143.922,338.947,140.527Zm126.137-20.5a7.613,7.613,0,0,1,.88,3.9q0,4.716-2.264,7.357A62.477,62.477,0,0,1,452.507,141.6a22.071,22.071,0,0,1-13.079,4.025c-4.024,0-7.105-1.195-9.118-3.522-2.075-2.326-3.081-5.722-3.081-10.124a78.668,78.668,0,0,1,1.635-11.884,64.919,64.919,0,0,0,1.572-10.312q0-1.887-1.321-1.886c-1.006,0-2.515,1.32-4.4,3.961a62.543,62.543,0,0,0-5.722,10.5,86.43,86.43,0,0,0-4.653,13.771c-1.509,6.351-5.219,9.495-11.13,9.495-2.389,0-3.961-.88-4.715-2.578s-1.132-4.779-1.132-9.181c0-2.515.063-4.527.125-6.036l.126-9.495a208.8,208.8,0,0,1,3.71-38.1q3.773-19.807,11-33.264c4.842-8.991,10.69-13.456,17.48-13.456a10.455,10.455,0,0,1,8.867,4.716c2.263,3.144,3.4,7.168,3.4,12.136,0,7.985-2.327,16.286-6.979,24.837s-12.262,18.613-22.763,30.056c-.251,4.087-.378,8.363-.378,12.7a66.265,66.265,0,0,1,8.74-16.411c3.207-4.213,6.351-7.231,9.495-9.055a17.28,17.28,0,0,1,8.615-2.7q7.734,0,7.734,7.734c0,3.081-.88,8.677-2.578,16.726-1.509,6.854-2.264,11.444-2.264,13.645,0,3.144,1.131,4.716,3.459,4.716,1.572,0,3.458-.943,5.659-2.892a95.538,95.538,0,0,0,8.74-9.433,4.046,4.046,0,0,1,3.207-1.635A2.764,2.764,0,0,1,465.083,120.028Zm-42.444-68.6A103.3,103.3,0,0,0,417.609,67.9a212.017,212.017,0,0,0-3.961,22.574,85.415,85.415,0,0,0,12.136-18.864c3.207-6.791,4.779-12.953,4.779-18.486a15.476,15.476,0,0,0-.817-5.785c-.566-1.32-1.321-2.012-2.39-2.012C425.972,45.327,424.4,47.339,422.639,51.426Zm37.1,89.29a21.038,21.038,0,0,1-3.4-12.262,99.91,99.91,0,0,1,1.195-16.286,104.1,104.1,0,0,1,3.9-15.72,9.767,9.767,0,0,1,3.333-5.093c1.446-1.006,3.646-1.572,6.791-1.572a5.884,5.884,0,0,1,3.647.817,3.016,3.016,0,0,1,1.006,2.516,49.1,49.1,0,0,1-1.32,6.413q-1.227,4.433-1.886,7.923c-1.572,8.3-2.389,13.834-2.389,16.6a7.948,7.948,0,0,0,.566,3.521,1.955,1.955,0,0,0,1.886,1.006c1.195,0,2.641-1.195,4.464-3.584a56.435,56.435,0,0,0,5.722-10.815A144.2,144.2,0,0,0,489.1,96.386,9.042,9.042,0,0,1,492,91.292a9.535,9.535,0,0,1,5.848-1.572,7.653,7.653,0,0,1,3.772.629,2.694,2.694,0,0,1,1.069,2.452c0,1.949-1.006,7.419-2.955,16.223-2.2,10.124-3.333,16.349-3.333,18.738a5.854,5.854,0,0,0,.943,3.522,3.015,3.015,0,0,0,2.515,1.257c1.572,0,3.458-.943,5.659-2.892a95.377,95.377,0,0,0,8.741-9.432,4.046,4.046,0,0,1,3.207-1.635,2.877,2.877,0,0,1,2.452,1.447,7.62,7.62,0,0,1,.88,3.9q0,4.716-2.263,7.357A52.417,52.417,0,0,1,507.589,141.6a22.842,22.842,0,0,1-13.33,4.025c-3.773,0-6.6-1.447-8.363-4.4s-2.641-7.042-2.641-12.325c-1.32,5.408-3.333,9.495-6.036,12.387s-5.6,4.339-8.677,4.339C464.895,145.683,462,144.048,459.739,140.716Zm53.51.188c-1.257-3.143-1.823-8.237-1.823-15.153a95.835,95.835,0,0,1,4.4-29.3,8.866,8.866,0,0,1,3.521-5.03,12.337,12.337,0,0,1,6.791-1.572,7.038,7.038,0,0,1,3.333.565,2.428,2.428,0,0,1,.943,2.264,44.539,44.539,0,0,1-1.76,8.551q-1.227,4.716-1.886,8.3a76.92,76.92,0,0,0-1.195,8.8,67.78,67.78,0,0,1,8.8-16.6c3.27-4.276,6.414-7.294,9.558-9.118a17.273,17.273,0,0,1,8.615-2.7q7.734,0,7.734,7.734a65.035,65.035,0,0,1-1.069,7.483,44.232,44.232,0,0,0-.943,5.91c0,2.767,1.006,4.15,2.955,4.15,2.2,0,5.031-1.761,8.552-5.219a4.593,4.593,0,0,1,3.207-1.572,2.809,2.809,0,0,1,2.452,1.383,6.793,6.793,0,0,1,.88,3.647,9.464,9.464,0,0,1-2.389,6.854,30.505,30.505,0,0,1-7.8,5.847,19.183,19.183,0,0,1-9.432,2.452c-4.213,0-7.357-1.069-9.558-3.207a11.521,11.521,0,0,1-3.27-8.678,17.333,17.333,0,0,1,.377-3.584,29.68,29.68,0,0,0,.251-3.207q0-1.887-1.32-1.886-1.792,0-4.715,3.961a58.129,58.129,0,0,0-5.786,10.5,86.4,86.4,0,0,0-4.653,13.771q-1.321,5.564-3.018,7.546c-1.132,1.32-2.955,1.949-5.408,1.949C516.581,145.683,514.443,144.048,513.249,140.9ZM630.9,120.028a7.617,7.617,0,0,1,.88,3.9q0,4.716-2.263,7.357A52.41,52.41,0,0,1,618.572,141.6a22.843,22.843,0,0,1-13.33,4.025,12.742,12.742,0,0,1-10.187-4.528,26.682,26.682,0,0,1-14.147,4.528c-1.006,15.28-3.333,27.981-6.98,38.23s-8.991,15.343-16.034,15.343c-4.276,0-7.42-1.572-9.495-4.653s-3.081-7.357-3.081-12.827c0-7.734,1.76-16.789,5.345-27.1a186.821,186.821,0,0,1,16.474-34.081c0-11.57-.063-19.555-.252-24.083a6.208,6.208,0,0,1,2.7-5.47,12.154,12.154,0,0,1,7.106-2.012,5.379,5.379,0,0,1,3.647,1.006c.754.692,1.195,2.012,1.257,3.961,0,1.949.063,3.458.126,4.4a27,27,0,0,1,7.483-6.791,15.631,15.631,0,0,1,7.859-2.075,13.256,13.256,0,0,1,10.879,5.345c2.83,3.584,4.213,8.237,4.213,14.022a38.158,38.158,0,0,1-2.012,12.2,39.239,39.239,0,0,1-5.6,10.815,14.2,14.2,0,0,0,4.15.692,11.839,11.839,0,0,0,7.483-2.829,67.743,67.743,0,0,0,9.118-9.5,4.045,4.045,0,0,1,3.207-1.635A2.834,2.834,0,0,1,630.9,120.028Zm-66.715,53.7a282.866,282.866,0,0,0,2.7-34.71,173.367,173.367,0,0,0-8.049,22.637c-1.949,7.168-2.955,13.267-2.955,18.172a15.271,15.271,0,0,0,.88,5.785c.566,1.321,1.258,2.013,2.075,2.013C560.975,187.624,562.735,183.033,564.182,173.727ZM589.4,129.586a27.393,27.393,0,0,0,5.722-9.243,31.238,31.238,0,0,0,2.138-11.569,8.8,8.8,0,0,0-1.446-5.408,4.591,4.591,0,0,0-3.773-1.823c-2.83,0-6.288,3.018-10.312,8.991-.063,3.458-.126,8.552-.126,15.28,0,3.647-.062,6.477-.126,8.426A15.528,15.528,0,0,0,589.4,129.586Zm78.1-39.111a2.723,2.723,0,0,1,1.069,2.389c0,1.886-1.006,8.678-3.081,20.31q-2.735,16.694-3.207,19.807-4.433,30.464-12.073,48.291-7.734,17.827-20.5,17.8a13.73,13.73,0,0,1-9.872-3.71,13.171,13.171,0,0,1-3.773-9.809,27.366,27.366,0,0,1,2.578-11.381c1.7-3.9,4.842-8.3,9.5-13.331a160.3,160.3,0,0,1,19.618-17.229l.378-2.7c.566-2.955,1.195-7.1,1.886-12.575-1.572,5.722-3.773,10-6.665,13.016-2.83,2.956-5.848,4.464-8.992,4.464-3.584,0-6.476-1.635-8.74-4.9a21.034,21.034,0,0,1-3.4-12.261,99.992,99.992,0,0,1,1.195-16.286,104.1,104.1,0,0,1,3.9-15.72,9.77,9.77,0,0,1,3.333-5.093c1.446-1.006,3.647-1.572,6.791-1.572a5.883,5.883,0,0,1,3.647.817,3.016,3.016,0,0,1,1.006,2.516,49.138,49.138,0,0,1-1.32,6.413q-1.226,4.433-1.886,7.923c-.629,3.27-1.195,6.351-1.635,9.306a44.217,44.217,0,0,0-.691,7.294c0,3.019.817,4.528,2.515,4.528,1.195,0,2.641-1.195,4.464-3.584a56.427,56.427,0,0,0,5.722-10.815A144.15,144.15,0,0,0,655.1,96.574,9.04,9.04,0,0,1,658,91.481a9.535,9.535,0,0,1,5.848-1.572A6.292,6.292,0,0,1,667.492,90.475Zm-29.868,90.169c2.453-4.59,4.9-12.2,7.357-22.888-6.1,5.156-10.5,9.809-13.2,14.085-2.7,4.213-4.087,7.923-4.087,11.067a6.7,6.7,0,0,0,.755,3.333,2.745,2.745,0,0,0,2.578,1.32C632.909,187.561,635.173,185.234,637.625,180.644Zm38.357-22.385a5.054,5.054,0,0,1,1.069-3.458,3.713,3.713,0,0,1,3.018-1.195,3.848,3.848,0,0,1,3.081,1.195,5.182,5.182,0,0,1,1.132,3.458,4.874,4.874,0,0,1-1.132,3.458,3.935,3.935,0,0,1-3.081,1.195,4.1,4.1,0,0,1-2.892-1.068A4.569,4.569,0,0,1,675.981,158.259Zm34.584,4.339c-5.47,0-9.684-1.7-12.639-5.031s-4.465-8.111-4.465-14.211c0-6.288,1.51-11.13,4.528-14.588s7.357-5.156,12.953-5.156a25.874,25.874,0,0,1,5.407.566,16.234,16.234,0,0,1,4.276,1.383l-1.761,4.842a24.724,24.724,0,0,0-4.15-1.258,20.051,20.051,0,0,0-3.961-.5c-7.672,0-11.444,4.9-11.444,14.651,0,4.652.943,8.174,2.767,10.627,1.886,2.452,4.653,3.71,8.3,3.71A25.639,25.639,0,0,0,720,155.618v5.031A19.818,19.818,0,0,1,710.565,162.6ZM761.5,143.105c0,6.162-1.572,10.941-4.653,14.4s-7.357,5.156-12.827,5.156a17.154,17.154,0,0,1-8.992-2.389,15.52,15.52,0,0,1-6.037-6.791,23.348,23.348,0,0,1-2.138-10.375c0-6.162,1.509-10.941,4.59-14.337s7.294-5.156,12.765-5.156c5.282,0,9.432,1.761,12.576,5.282C759.925,132.352,761.5,137.131,761.5,143.105Zm-28.673,0c0,4.779.943,8.488,2.892,11s4.779,3.773,8.489,3.773,6.54-1.258,8.489-3.773,2.893-6.163,2.893-11c0-4.779-.943-8.426-2.893-10.878-1.949-2.515-4.779-3.71-8.552-3.71-3.709,0-6.539,1.195-8.426,3.647C733.768,134.553,732.824,138.2,732.824,143.105Z" transform="translate(-296.907 -14.35)" fill="url(#linear-gradient)"/>
  </g>
</svg>
