<svg xmlns="http://www.w3.org/2000/svg" xmlns:xlink="http://www.w3.org/1999/xlink" width="584" height="591" viewBox="0 0 584 591">
  <defs>
    <clipPath id="clip-Leads_icon">
      <rect width="584" height="591"/>
    </clipPath>
  </defs>
  <g id="Leads_icon" data-name="Leads icon" clip-path="url(#clip-Leads_icon)">
    <rect width="584" height="591" fill="#fff"/>
    <g id="Group_191" data-name="Group 191" transform="translate(0 -0.009)">
      <path id="Path_246" data-name="Path 246" d="M200.651,381.518,68.936,513.233a30.868,30.868,0,0,1-43.654,0h0a30.867,30.867,0,0,1,0-43.654L157,337.865Z" transform="translate(2.005 41.714)" fill="#58bfff"/>
      <path id="Path_247" data-name="Path 247" d="M466.022,240.966v9.01a36.041,36.041,0,0,1-36.042,36.042h0a36.041,36.041,0,0,1-36.042-36.042v-9.01a36.042,36.042,0,0,1,36.042-36.042h0A36.042,36.042,0,0,1,466.022,240.966Z" transform="translate(48.639 25.301)" fill="#ffcdac"/>
      <path id="Path_248" data-name="Path 248" d="M459.706,277.106H411.1a61.056,61.056,0,0,0-61.057,61.056v22.62H520.762v-22.62A61.056,61.056,0,0,0,459.706,277.106Z" transform="translate(43.219 34.213)" fill="#ffbc53"/>
      <path id="Path_249" data-name="Path 249" d="M53.9,240.966v9.01a36.042,36.042,0,0,0,36.042,36.042h0a36.041,36.041,0,0,0,36.042-36.042v-9.01a36.042,36.042,0,0,0-36.042-36.042h0A36.042,36.042,0,0,0,53.9,240.966Z" transform="translate(6.655 25.301)" fill="#ffcdac"/>
      <path id="Path_250" data-name="Path 250" d="M71.056,277.106h48.608a61.056,61.056,0,0,1,61.056,61.056v22.62H10v-22.62A61.056,61.056,0,0,1,71.056,277.106Z" transform="translate(1.235 34.213)" fill="#95e540"/>
      <circle id="Ellipse_16" data-name="Ellipse 16" cx="155.039" cy="155.039" r="155.039" transform="translate(132.569 130.636)" fill="#a5ddff"/>
      <circle id="Ellipse_17" data-name="Ellipse 17" cx="110.066" cy="110.066" r="110.066" transform="translate(177.542 175.608)" fill="#fff"/>
      <path id="Path_251" data-name="Path 251" d="M294.746,245.563v8.727a34.91,34.91,0,0,1-34.91,34.909h0a34.91,34.91,0,0,1-34.909-34.909v-8.727a34.909,34.909,0,0,1,34.909-34.909h0A34.908,34.908,0,0,1,294.746,245.563Z" transform="translate(27.771 26.008)" fill="#ffcdac"/>
      <path id="Path_252" data-name="Path 252" d="M264.238,280.568h0a80.568,80.568,0,0,0-74.964,51.066,110.013,110.013,0,0,0,149.929,0A80.569,80.569,0,0,0,264.238,280.568Z" transform="translate(23.369 34.64)" fill="#fe6663"/>
      <path id="Path_253" data-name="Path 253" d="M517.844,288.52a47,47,0,0,0,8.053-26.363v-9.011a47.252,47.252,0,0,0-80.636-33.466c-22.139-65.843-84.445-113.4-157.654-113.4s-135.515,47.56-157.654,113.4a47.252,47.252,0,0,0-80.636,33.466v9.011a47,47,0,0,0,8.053,26.363A72.412,72.412,0,0,0,0,359.254v22.62a11.236,11.236,0,0,0,11.235,11.235h58.42a11.235,11.235,0,1,0,0-22.469H22.469V359.254a49.879,49.879,0,0,1,49.822-49.823h53.173a165.337,165.337,0,0,0,22.066,52.613L19.344,490.232a42.1,42.1,0,0,0,59.543,59.541l70.67-70.67a11.235,11.235,0,0,0-15.889-15.889L63,533.884a19.633,19.633,0,1,1-27.767-27.765L161.068,380.283a165.958,165.958,0,0,0,126.54,58.538c79.011,0,145.321-55.4,162.143-129.39h53.173a49.879,49.879,0,0,1,49.822,49.823v11.385H447.14a11.235,11.235,0,0,0,0,22.469H563.981a11.236,11.236,0,0,0,11.235-11.235v-22.62A72.412,72.412,0,0,0,517.844,288.52Zm-64.032-35.374a24.807,24.807,0,0,1,49.615,0v9.011a24.807,24.807,0,0,1-49.615,0Zm-382.025,0a24.807,24.807,0,0,1,49.615,0v9.011a24.807,24.807,0,0,1-49.615,0S71.787,253.146,71.787,253.146Zm215.82,163.206c-79.293,0-143.8-64.51-143.8-143.8s64.511-143.8,143.8-143.8,143.8,64.511,143.8,143.8S366.9,416.352,287.608,416.352Z" transform="translate(0 13.12)"/>
      <path id="Path_254" data-name="Path 254" d="M269.334,146.275a121.275,121.275,0,0,0-83.206,209.56,11.257,11.257,0,0,0,1.3,1.214,121.106,121.106,0,0,0,163.806,0,11.145,11.145,0,0,0,1.3-1.213,121.275,121.275,0,0,0-83.207-209.56ZM208.109,345.181a69.334,69.334,0,0,1,122.451,0,98.667,98.667,0,0,1-122.451,0Zm37.551-82.941v-8.728a23.675,23.675,0,1,1,47.35,0v8.728a23.675,23.675,0,1,1-47.35,0Zm101.335,66.486a91,91,0,0,0-42.988-36.086,45.94,45.94,0,0,0,11.473-30.4v-8.728a46.144,46.144,0,0,0-92.289,0v8.728a45.934,45.934,0,0,0,11.473,30.4,91.01,91.01,0,0,0-42.988,36.086,98.865,98.865,0,1,1,155.319,0Z" transform="translate(18.274 18.059)"/>
      <path id="Path_255" data-name="Path 255" d="M154.035,394.309a11.238,11.238,0,1,0,7.943,3.291A11.323,11.323,0,0,0,154.035,394.309Z" transform="translate(17.631 48.683)"/>
      <path id="Path_256" data-name="Path 256" d="M257.438,60.7a11.236,11.236,0,0,0,11.234-11.235V11.244a11.235,11.235,0,1,0-22.469,0V49.469A11.235,11.235,0,0,0,257.438,60.7Z" transform="translate(30.398 0)"/>
      <path id="Path_257" data-name="Path 257" d="M257.435,89.478a11.241,11.241,0,1,0-7.943-3.293A11.292,11.292,0,0,0,257.435,89.478Z" transform="translate(30.398 8.272)"/>
      <path id="Path_258" data-name="Path 258" d="M317.566,78.522a11.2,11.2,0,0,0,7.944-3.291l19.746-19.746A11.235,11.235,0,0,0,329.368,39.6L309.622,59.343a11.235,11.235,0,0,0,7.945,19.18Z" transform="translate(37.822 4.482)"/>
      <path id="Path_259" data-name="Path 259" d="M191.318,75.374a11.235,11.235,0,0,0,15.889-15.889L187.271,39.549a11.235,11.235,0,1,0-15.889,15.889Z" transform="translate(20.754 4.476)"/>
    </g>
  </g>
</svg>
