<svg xmlns="http://www.w3.org/2000/svg" xmlns:xlink="http://www.w3.org/1999/xlink" width="485" height="482" viewBox="0 0 485 482">
  <defs>
    <clipPath id="clip-Tickets_icon">
      <rect width="485" height="482"/>
    </clipPath>
  </defs>
  <g id="Tickets_icon" data-name="Tickets icon" clip-path="url(#clip-Tickets_icon)">
    <rect width="485" height="482" fill="#fff"/>
    <g id="Group_189" data-name="Group 189" transform="translate(-0.097 0)">
      <g id="Group_188" data-name="Group 188" transform="translate(0.097 0)">
        <g id="Group_181" data-name="Group 181" transform="translate(28.588 3.797)">
          <path id="Path_215" data-name="Path 215" d="M471.3,152.012,180.938,447.753a25.641,25.641,0,0,1-36.191.384L37.542,343.476a25.489,25.489,0,0,1-.381-36.114L327.52,11.62a25.641,25.641,0,0,1,36.191-.384L470.915,115.9a25.49,25.49,0,0,1,.382,36.115Z" transform="translate(-29.85 -3.951)" fill="#b8d7e6"/>
          <g id="Group_179" data-name="Group 179" transform="translate(215.432 0.005)">
            <path id="Path_216" data-name="Path 216" d="M336.3,11.627,254.063,95.384,397.852,235.763l82.232-83.756a25.479,25.479,0,0,0-.381-36.1L372.5,11.243A25.651,25.651,0,0,0,336.3,11.627Z" transform="translate(-254.063 -3.957)" fill="#5177e8"/>
          </g>
          <g id="Group_180" data-name="Group 180" transform="translate(300.632 72.613)">
            <path id="Path_217" data-name="Path 217" d="M342.736,181.522l58.589,57.2,82.233-83.756a25.478,25.478,0,0,0-.383-36.1l-40.3-39.34Z" transform="translate(-342.736 -79.524)" fill="#ff9000"/>
          </g>
        </g>
        <g id="Group_187" data-name="Group 187" transform="translate(0 0)">
          <path id="Path_218" data-name="Path 218" d="M404.519,123.994,170.8,466.354a25.644,25.644,0,0,1-35.557,6.766l-123.96-84.1a25.486,25.486,0,0,1-6.736-35.481l233.72-342.36a25.644,25.644,0,0,1,35.557-6.766l123.96,84.1A25.486,25.486,0,0,1,404.519,123.994Z" transform="translate(-0.097 0)" fill="#ebf9ff"/>
          <path id="Path_219" data-name="Path 219" d="M403.213,88.513l-123.96-84.1a25.652,25.652,0,0,0-30.532,1.31L370.749,88.513a25.487,25.487,0,0,1,6.736,35.481L143.766,466.354a25.617,25.617,0,0,1-5.025,5.457l1.932,1.31a25.644,25.644,0,0,0,35.556-6.766l233.72-342.36A25.487,25.487,0,0,0,403.213,88.513Z" transform="translate(-5.527 0)" fill="#d7effa"/>
          <g id="Group_182" data-name="Group 182" transform="translate(171.974 0.004)">
            <path id="Path_220" data-name="Path 220" d="M245.271,11.19,179.08,108.149,277.6,174.986l133.938-51A25.475,25.475,0,0,0,404.8,88.519l-123.96-84.1a25.654,25.654,0,0,0-35.568,6.769Z" transform="translate(-179.08 -0.004)" fill="#7191f0"/>
          </g>
          <path id="Path_221" data-name="Path 221" d="M407.355,88.518,283.4,4.421a25.656,25.656,0,0,0-35.57,6.769l-3.471,5.085a25.629,25.629,0,0,1,25.13,2.056l123.959,84.1a25.466,25.466,0,0,1,10.828,25.3l9.816-3.738A25.475,25.475,0,0,0,407.355,88.518Z" transform="translate(-9.663 0)" fill="#6084f0"/>
          <g id="Group_183" data-name="Group 183" transform="translate(107.784 188.808)">
            <path id="Path_222" data-name="Path 222" d="M249.671,220.652a7.209,7.209,0,0,0-10.015,1.889L113.529,407.294a7.207,7.207,0,1,0,11.9,8.127L251.56,230.668A7.209,7.209,0,0,0,249.671,220.652Z" transform="translate(-112.274 -197.401)" fill="#7191f0"/>
            <path id="Path_223" data-name="Path 223" d="M243.34,304.646a7.208,7.208,0,0,0-10.015,1.889L147.277,432.582a7.207,7.207,0,1,0,11.9,8.127l86.049-126.048A7.207,7.207,0,0,0,243.34,304.646Z" transform="translate(-113.595 -200.69)" fill="#7191f0"/>
            <path id="Path_224" data-name="Path 224" d="M154.665,291.678a7.2,7.2,0,0,0,10.014-1.888l55.991-82.017a7.206,7.206,0,1,0-11.9-8.125l-55.991,82.016A7.207,7.207,0,0,0,154.665,291.678Z" transform="translate(-113.811 -196.504)" fill="#7191f0"/>
          </g>
          <path id="Path_225" data-name="Path 225" d="M118.754,343.2l-21.217,31.08a22.465,22.465,0,1,1-37.172-25.237l21.217-31.08A22.465,22.465,0,1,1,118.754,343.2Z" transform="translate(-2.304 -12.067)" fill="#ffe940"/>
          <g id="Group_184" data-name="Group 184" transform="translate(270.49 56.909)">
            <path id="Path_226" data-name="Path 226" d="M281.612,177.305l67.745,45.961,66.191-96.959a25.476,25.476,0,0,0-6.735-35.468L362.22,59.228Z" transform="translate(-281.612 -59.228)" fill="#ffe940"/>
          </g>
          <path id="Path_227" data-name="Path 227" d="M410.665,90.838,364.072,59.227,353.73,74.375,378,90.838a25.476,25.476,0,0,1,6.735,35.468l-55.851,81.811,22.328,15.148L417.4,126.306A25.476,25.476,0,0,0,410.665,90.838Z" transform="translate(-12.972 -2.319)" fill="#f5dc1d"/>
          <g id="Group_186" data-name="Group 186" transform="translate(218.42 36.004)">
            <path id="Path_228" data-name="Path 228" d="M276.727,38.726a7.209,7.209,0,0,0-10.015,1.889L228.675,96.333a7.207,7.207,0,1,0,11.9,8.127l38.037-55.719A7.206,7.206,0,0,0,276.727,38.726Z" transform="translate(-227.42 -37.472)" fill="#ebf9ff"/>
            <path id="Path_229" data-name="Path 229" d="M292.838,75.624a7.209,7.209,0,0,0-10.015,1.889l-26.25,38.452a7.207,7.207,0,1,0,11.9,8.127l26.25-38.452A7.209,7.209,0,0,0,292.838,75.624Z" transform="translate(-228.512 -38.917)" fill="#ebf9ff"/>
            <g id="Group_185" data-name="Group 185" transform="translate(89.313 59.096)">
              <path id="Path_230" data-name="Path 230" d="M349.241,175.956l-17.615-11.951a7.206,7.206,0,1,0-8.091,11.928l17.615,11.951a7.207,7.207,0,0,0,8.091-11.928Z" transform="translate(-320.373 -101.474)" fill="#7191f0"/>
              <path id="Path_231" data-name="Path 231" d="M363.756,154.7,346.14,142.744a7.206,7.206,0,1,0-8.09,11.926l17.615,11.951a7.205,7.205,0,1,0,8.09-11.926Z" transform="translate(-320.941 -100.642)" fill="#7191f0"/>
              <path id="Path_232" data-name="Path 232" d="M378.269,133.432l-17.615-11.951a7.207,7.207,0,0,0-8.091,11.928l17.616,11.951a7.206,7.206,0,1,0,8.09-11.928Z" transform="translate(-321.51 -99.809)" fill="#7191f0"/>
              <path id="Path_233" data-name="Path 233" d="M392.786,112.171,375.171,100.22a7.206,7.206,0,1,0-8.092,11.926L384.7,124.1a7.206,7.206,0,1,0,8.091-11.926Z" transform="translate(-322.078 -98.977)" fill="#7191f0"/>
            </g>
          </g>
        </g>
      </g>
    </g>
  </g>
</svg>
